<?xml version="1.0" encoding="UTF-8" standalone="no"?>
<!DOCTYPE svg PUBLIC "-//W3C//DTD SVG 1.1//EN"
 "http://www.w3.org/Graphics/SVG/1.1/DTD/svg11.dtd">
<!-- Generated by graphviz version 11.0.0 (20240428.1522)
 -->
<!-- Pages: 1 -->
<svg width="491pt" height="352pt"
 viewBox="0.00 0.00 490.75 351.62" xmlns="http://www.w3.org/2000/svg" xmlns:xlink="http://www.w3.org/1999/xlink">
<g id="graph0" class="graph" transform="scale(1 1) rotate(0) translate(4 347.62)">
<polygon fill="white" stroke="none" points="-4,4 -4,-347.62 486.75,-347.62 486.75,4 -4,4"/>
<!-- Distance to Package -->
<g id="node1" class="node">
<title>Distance to Package</title>
<polygon fill="lightgray" stroke="black" points="189.62,-258.05 101.62,-258.05 101.62,-238.8 189.62,-238.8 189.62,-258.05"/>
<text text-anchor="middle" x="145.62" y="-245.5" font-family="Times New Roman,serif" font-size="9.00">Distance to Package</text>
</g>
<!-- package output -->
<g id="node7" class="node">
<title>package output</title>
<ellipse fill="lightblue" stroke="black" cx="281.62" cy="-50.56" rx="50.56" ry="50.56"/>
<text text-anchor="middle" x="281.62" y="-47.63" font-family="Times New Roman,serif" font-size="9.00">package output</text>
</g>
<!-- Distance to Package&#45;&gt;package output -->
<g id="edge1" class="edge">
<title>Distance to Package&#45;&gt;package output</title>
<path fill="none" stroke="green" stroke-width="0.13" stroke-dasharray="1,5" d="M151.59,-238.51C164.2,-219.69 194.56,-174.56 220.62,-137.12 228.93,-125.2 237.96,-112.41 246.48,-100.46"/>
<polygon fill="green" stroke="green" stroke-width="0.13" points="249.2,-102.67 252.16,-92.5 243.5,-98.6 249.2,-102.67"/>
</g>
<!-- 34 -->
<g id="node9" class="node">
<title>34</title>
<ellipse fill="white" stroke="black" cx="247.62" cy="-154.79" rx="17.68" ry="17.68"/>
<text text-anchor="middle" x="247.62" y="-151.87" font-family="Times New Roman,serif" font-size="9.00">34</text>
</g>
<!-- Distance to Package&#45;&gt;34 -->
<g id="edge11" class="edge">
<title>Distance to Package&#45;&gt;34</title>
<path fill="none" stroke="green" stroke-width="0.31" d="M155.78,-238.3C172.31,-223.45 205.37,-193.75 226.99,-174.34"/>
<polygon fill="green" stroke="green" stroke-width="0.31" points="229.21,-177.04 234.31,-167.76 224.53,-171.84 229.21,-177.04"/>
</g>
<!-- Package distance to hub -->
<g id="node2" class="node">
<title>Package distance to hub</title>
<polygon fill="lightgray" stroke="black" points="212.38,-343.62 110.88,-343.62 110.88,-324.37 212.38,-324.37 212.38,-343.62"/>
<text text-anchor="middle" x="161.62" y="-331.07" font-family="Times New Roman,serif" font-size="9.00">Package distance to hub</text>
</g>
<!-- hub output -->
<g id="node8" class="node">
<title>hub output</title>
<ellipse fill="lightblue" stroke="black" cx="247.62" cy="-248.42" rx="39.95" ry="39.95"/>
<text text-anchor="middle" x="247.62" y="-245.5" font-family="Times New Roman,serif" font-size="9.00">hub output</text>
</g>
<!-- Package distance to hub&#45;&gt;hub output -->
<g id="edge2" class="edge">
<title>Package distance to hub&#45;&gt;hub output</title>
<path fill="none" stroke="red" stroke-width="0.35" d="M170.83,-324.06C180.73,-314.43 197.1,-298.52 212.19,-283.86"/>
<polygon fill="red" stroke="red" stroke-width="0.35" points="214.35,-286.64 219.08,-277.16 209.47,-281.62 214.35,-286.64"/>
</g>
<!-- Current loop package -->
<g id="node3" class="node">
<title>Current loop package</title>
<polygon fill="lightgray" stroke="black" points="93.25,-343.62 0,-343.62 0,-324.37 93.25,-324.37 93.25,-343.62"/>
<text text-anchor="middle" x="46.62" y="-331.07" font-family="Times New Roman,serif" font-size="9.00">Current loop package</text>
</g>
<!-- Current loop package&#45;&gt;package output -->
<g id="edge3" class="edge">
<title>Current loop package&#45;&gt;package output</title>
<path fill="none" stroke="red" stroke-width="0.12" d="M48.25,-324.11C52.51,-302.59 65.6,-246.66 92.62,-208.47 129.5,-156.36 187.87,-111.54 229.99,-83.31"/>
<polygon fill="red" stroke="red" stroke-width="0.12" points="231.9,-86.24 238.31,-77.81 228.03,-80.4 231.9,-86.24"/>
</g>
<!-- Current loop package&#45;&gt;hub output -->
<g id="edge4" class="edge">
<title>Current loop package&#45;&gt;hub output</title>
<path fill="none" stroke="red" stroke-width="0.2" d="M93.62,-324.13C124.6,-317.12 165.42,-305.6 198.62,-288.37 202.37,-286.43 206.1,-284.18 209.75,-281.77"/>
<polygon fill="red" stroke="red" stroke-width="0.2" points="211.66,-284.7 217.8,-276.06 207.61,-278.99 211.66,-284.7"/>
</g>
<!-- Distance to hub -->
<g id="node4" class="node">
<title>Distance to hub</title>
<polygon fill="lightgray" stroke="black" points="303.12,-343.62 230.12,-343.62 230.12,-324.37 303.12,-324.37 303.12,-343.62"/>
<text text-anchor="middle" x="266.62" y="-331.07" font-family="Times New Roman,serif" font-size="9.00">Distance to hub</text>
</g>
<!-- Distance to hub&#45;&gt;package output -->
<g id="edge5" class="edge">
<title>Distance to hub&#45;&gt;package output</title>
<path fill="none" stroke="green" stroke-width="0.13" d="M275.12,-323.94C282.43,-315.48 292.43,-302.13 296.62,-288.37 314.61,-229.39 306.43,-158.42 296.54,-109.64"/>
<polygon fill="green" stroke="green" stroke-width="0.13" points="300.01,-109.14 294.52,-100.08 293.16,-110.59 300.01,-109.14"/>
</g>
<!-- Distance to hub&#45;&gt;hub output -->
<g id="edge6" class="edge">
<title>Distance to hub&#45;&gt;hub output</title>
<path fill="none" stroke="red" stroke-width="0.36" d="M264.59,-324.06C263.1,-317.49 260.94,-307.99 258.66,-297.96"/>
<polygon fill="red" stroke="red" stroke-width="0.36" points="262.11,-297.35 256.48,-288.37 255.28,-298.9 262.11,-297.35"/>
</g>
<!-- Current Time -->
<g id="node5" class="node">
<title>Current Time</title>
<polygon fill="lightgray" stroke="black" points="386,-343.62 321.25,-343.62 321.25,-324.37 386,-324.37 386,-343.62"/>
<text text-anchor="middle" x="353.62" y="-331.07" font-family="Times New Roman,serif" font-size="9.00">Current Time</text>
</g>
<!-- Current Time&#45;&gt;package output -->
<g id="edge7" class="edge">
<title>Current Time&#45;&gt;package output</title>
<path fill="none" stroke="red" stroke-width="0.27" stroke-dasharray="1,5" d="M352.7,-324.25C349.62,-296.43 338.69,-207.69 317.62,-137.12 314.59,-126.94 310.73,-116.32 306.67,-106.18"/>
<polygon fill="red" stroke="red" stroke-width="0.27" points="309.93,-104.91 302.89,-96.99 303.46,-107.57 309.93,-104.91"/>
</g>
<!-- Current Time&#45;&gt;hub output -->
<g id="edge8" class="edge">
<title>Current Time&#45;&gt;hub output</title>
<path fill="none" stroke="red" stroke-width="0.27" d="M342.28,-324.06C329.04,-313.62 306.44,-295.8 286.64,-280.19"/>
<polygon fill="red" stroke="red" stroke-width="0.27" points="288.99,-277.58 278.97,-274.14 284.65,-283.08 288.99,-277.58"/>
</g>
<!-- Package Deadline -->
<g id="node6" class="node">
<title>Package Deadline</title>
<polygon fill="lightgray" stroke="black" points="482.75,-343.62 404.5,-343.62 404.5,-324.37 482.75,-324.37 482.75,-343.62"/>
<text text-anchor="middle" x="443.62" y="-331.07" font-family="Times New Roman,serif" font-size="9.00">Package Deadline</text>
</g>
<!-- Package Deadline&#45;&gt;package output -->
<g id="edge9" class="edge">
<title>Package Deadline&#45;&gt;package output</title>
<path fill="none" stroke="red" stroke-width="0.28" d="M438.86,-323.91C424.08,-295.82 377.49,-208.01 335.62,-137.12 328.86,-125.67 321.38,-113.51 314.19,-102.06"/>
<polygon fill="red" stroke="red" stroke-width="0.28" points="317.29,-100.41 308.99,-93.82 311.37,-104.14 317.29,-100.41"/>
</g>
<!-- Package Deadline&#45;&gt;hub output -->
<g id="edge10" class="edge">
<title>Package Deadline&#45;&gt;hub output</title>
<path fill="none" stroke="green" stroke-width="0.2" d="M422.28,-323.9C391.6,-310.81 334.27,-286.37 293.68,-269.06"/>
<polygon fill="green" stroke="green" stroke-width="0.2" points="295.11,-265.87 284.54,-265.16 292.36,-272.31 295.11,-265.87"/>
</g>
<!-- hub output&#45;&gt;34 -->
<g id="edge13" class="edge">
<title>hub output&#45;&gt;34</title>
<path fill="none" stroke="red" stroke-width="0.15" d="M247.62,-208.03C247.62,-199.5 247.62,-190.65 247.62,-182.73"/>
<polygon fill="red" stroke="red" stroke-width="0.15" points="251.13,-182.83 247.63,-172.83 244.13,-182.83 251.13,-182.83"/>
</g>
<!-- 34&#45;&gt;package output -->
<g id="edge12" class="edge">
<title>34&#45;&gt;package output</title>
<path fill="none" stroke="red" stroke-width="0.27" d="M252.94,-137.82C255.65,-129.65 259.14,-119.17 262.74,-108.34"/>
<polygon fill="red" stroke="red" stroke-width="0.27" points="265.95,-109.77 265.79,-99.18 259.31,-107.56 265.95,-109.77"/>
</g>
</g>
</svg>
