<?xml version="1.0" encoding="UTF-8" standalone="no"?>
<!DOCTYPE svg PUBLIC "-//W3C//DTD SVG 1.1//EN"
 "http://www.w3.org/Graphics/SVG/1.1/DTD/svg11.dtd">
<!-- Generated by graphviz version 11.0.0 (20240428.1522)
 -->
<!-- Pages: 1 -->
<svg width="229pt" height="92pt"
 viewBox="0.00 0.00 229.00 92.24" xmlns="http://www.w3.org/2000/svg" xmlns:xlink="http://www.w3.org/1999/xlink">
<g id="graph0" class="graph" transform="scale(1 1) rotate(0) translate(4 88.24)">
<polygon fill="white" stroke="none" points="-4,4 -4,-88.24 225,-88.24 225,4 -4,4"/>
<!-- A -->
<g id="node1" class="node">
<title>A</title>
<polygon fill="lightgray" stroke="black" points="22.75,-84.24 0,-84.24 0,-64.99 22.75,-64.99 22.75,-84.24"/>
<text text-anchor="middle" x="11.38" y="-71.69" font-family="Times New Roman,serif" font-size="9.00">A</text>
</g>
<!-- 0 -->
<g id="node7" class="node">
<title>0</title>
<ellipse fill="lightblue" stroke="black" cx="91.38" cy="-14.5" rx="14.5" ry="14.5"/>
<text text-anchor="middle" x="91.38" y="-11.57" font-family="Times New Roman,serif" font-size="9.00">0</text>
</g>
<!-- A&#45;&gt;0 -->
<g id="edge1" class="edge">
<title>A&#45;&gt;0</title>
<path fill="none" stroke="red" stroke-width="0.41" d="M23.18,-65.04C35.9,-55.8 56.35,-40.94 71.54,-29.9"/>
<polygon fill="red" stroke="red" stroke-width="0.41" points="73.25,-32.99 79.28,-24.28 69.14,-27.33 73.25,-32.99"/>
</g>
<!-- B -->
<g id="node2" class="node">
<title>B</title>
<polygon fill="lightgray" stroke="black" points="62.38,-84.24 40.38,-84.24 40.38,-64.99 62.38,-64.99 62.38,-84.24"/>
<text text-anchor="middle" x="51.38" y="-71.69" font-family="Times New Roman,serif" font-size="9.00">B</text>
</g>
<!-- B&#45;&gt;0 -->
<g id="edge2" class="edge">
<title>B&#45;&gt;0</title>
<path fill="none" stroke="red" stroke-width="0.16" d="M57.62,-64.54C63,-56.73 70.93,-45.2 77.76,-35.29"/>
<polygon fill="red" stroke="red" stroke-width="0.16" points="80.46,-37.54 83.24,-27.31 74.69,-33.57 80.46,-37.54"/>
</g>
<!-- C -->
<g id="node3" class="node">
<title>C</title>
<polygon fill="lightgray" stroke="black" points="102.38,-84.24 80.38,-84.24 80.38,-64.99 102.38,-64.99 102.38,-84.24"/>
<text text-anchor="middle" x="91.38" y="-71.69" font-family="Times New Roman,serif" font-size="9.00">C</text>
</g>
<!-- C&#45;&gt;0 -->
<g id="edge3" class="edge">
<title>C&#45;&gt;0</title>
<path fill="none" stroke="red" stroke-width="0.16" d="M91.38,-64.54C91.38,-57.82 91.38,-48.34 91.38,-39.5"/>
<polygon fill="red" stroke="red" stroke-width="0.16" points="94.88,-39.51 91.38,-29.51 87.88,-39.51 94.88,-39.51"/>
</g>
<!-- D -->
<g id="node4" class="node">
<title>D</title>
<polygon fill="lightgray" stroke="black" points="142.75,-84.24 120,-84.24 120,-64.99 142.75,-64.99 142.75,-84.24"/>
<text text-anchor="middle" x="131.38" y="-71.69" font-family="Times New Roman,serif" font-size="9.00">D</text>
</g>
<!-- D&#45;&gt;0 -->
<g id="edge4" class="edge">
<title>D&#45;&gt;0</title>
<path fill="none" stroke="red" stroke-width="0.11" d="M125.12,-64.54C119.75,-56.73 111.82,-45.2 104.99,-35.29"/>
<polygon fill="red" stroke="red" stroke-width="0.11" points="108.02,-33.51 99.47,-27.25 102.25,-37.47 108.02,-33.51"/>
</g>
<!-- E -->
<g id="node5" class="node">
<title>E</title>
<polygon fill="lightgray" stroke="black" points="182,-84.24 160.75,-84.24 160.75,-64.99 182,-64.99 182,-84.24"/>
<text text-anchor="middle" x="171.38" y="-71.69" font-family="Times New Roman,serif" font-size="9.00">E</text>
</g>
<!-- E&#45;&gt;0 -->
<g id="edge5" class="edge">
<title>E&#45;&gt;0</title>
<path fill="none" stroke="green" stroke-width="0.5" d="M160.25,-65.53C147.62,-56.36 126.76,-41.2 111.3,-29.97"/>
<polygon fill="green" stroke="green" stroke-width="0.5" points="113.68,-27.38 103.54,-24.33 109.57,-33.04 113.68,-27.38"/>
</g>
<!-- F -->
<g id="node6" class="node">
<title>F</title>
<polygon fill="lightgray" stroke="black" points="221,-84.24 199.75,-84.24 199.75,-64.99 221,-64.99 221,-84.24"/>
<text text-anchor="middle" x="210.38" y="-71.69" font-family="Times New Roman,serif" font-size="9.00">F</text>
</g>
</g>
</svg>
