<?xml version="1.0" encoding="UTF-8" standalone="no"?>
<!DOCTYPE svg PUBLIC "-//W3C//DTD SVG 1.1//EN"
 "http://www.w3.org/Graphics/SVG/1.1/DTD/svg11.dtd">
<!-- Generated by graphviz version 11.0.0 (20240428.1522)
 -->
<!-- Pages: 1 -->
<svg width="514pt" height="236pt"
 viewBox="0.00 0.00 514.18 235.72" xmlns="http://www.w3.org/2000/svg" xmlns:xlink="http://www.w3.org/1999/xlink">
<g id="graph0" class="graph" transform="scale(1 1) rotate(0) translate(4 231.72)">
<polygon fill="white" stroke="none" points="-4,4 -4,-231.72 510.18,-231.72 510.18,4 -4,4"/>
<!-- Distance to Package -->
<g id="node1" class="node">
<title>Distance to Package</title>
<polygon fill="lightgray" stroke="black" points="386.43,-227.72 298.43,-227.72 298.43,-208.47 386.43,-208.47 386.43,-227.72"/>
<text text-anchor="middle" x="342.43" y="-215.17" font-family="Times New Roman,serif" font-size="9.00">Distance to Package</text>
</g>
<!-- package output -->
<g id="node7" class="node">
<title>package output</title>
<ellipse fill="lightblue" stroke="black" cx="102.43" cy="-50.56" rx="50.56" ry="50.56"/>
<text text-anchor="middle" x="102.43" y="-47.63" font-family="Times New Roman,serif" font-size="9.00">package output</text>
</g>
<!-- Distance to Package&#45;&gt;package output -->
<g id="edge1" class="edge">
<title>Distance to Package&#45;&gt;package output</title>
<path fill="none" stroke="red" stroke-width="0.17" d="M298.09,-213.35C263.5,-208.54 215.74,-197.55 181.43,-172.47 158.36,-155.61 140.18,-129.81 127.1,-106.36"/>
<polygon fill="red" stroke="red" stroke-width="0.17" points="130.29,-104.89 122.47,-97.74 124.12,-108.21 130.29,-104.89"/>
</g>
<!-- hub output -->
<g id="node8" class="node">
<title>hub output</title>
<ellipse fill="lightblue" stroke="black" cx="342.43" cy="-50.56" rx="39.95" ry="39.95"/>
<text text-anchor="middle" x="342.43" y="-47.63" font-family="Times New Roman,serif" font-size="9.00">hub output</text>
</g>
<!-- Distance to Package&#45;&gt;hub output -->
<g id="edge2" class="edge">
<title>Distance to Package&#45;&gt;hub output</title>
<path fill="none" stroke="red" stroke-width="0.45" stroke-dasharray="1,5" d="M379.44,-208.01C410.35,-199.59 450.87,-186.3 460.43,-172.47 487.69,-133.02 432,-94.64 388.19,-72.05"/>
<polygon fill="red" stroke="red" stroke-width="0.45" points="389.89,-68.99 379.38,-67.65 386.76,-75.25 389.89,-68.99"/>
</g>
<!-- 24 -->
<g id="node10" class="node">
<title>24</title>
<ellipse fill="white" stroke="black" cx="342.43" cy="-154.79" rx="17.68" ry="17.68"/>
<text text-anchor="middle" x="342.43" y="-151.87" font-family="Times New Roman,serif" font-size="9.00">24</text>
</g>
<!-- Distance to Package&#45;&gt;24 -->
<g id="edge9" class="edge">
<title>Distance to Package&#45;&gt;24</title>
<path fill="none" stroke="green" stroke-width="0.36" d="M342.43,-208.05C342.43,-201.35 342.43,-191.84 342.43,-182.77"/>
<polygon fill="green" stroke="green" stroke-width="0.36" points="345.93,-183.06 342.43,-173.06 338.93,-183.06 345.93,-183.06"/>
</g>
<!-- Package distance to hub -->
<g id="node2" class="node">
<title>Package distance to hub</title>
<polygon fill="lightgray" stroke="black" points="506.18,-227.72 404.68,-227.72 404.68,-208.47 506.18,-208.47 506.18,-227.72"/>
<text text-anchor="middle" x="455.43" y="-215.17" font-family="Times New Roman,serif" font-size="9.00">Package distance to hub</text>
</g>
<!-- Current loop package -->
<g id="node3" class="node">
<title>Current loop package</title>
<polygon fill="lightgray" stroke="black" points="181.06,-227.72 87.81,-227.72 87.81,-208.47 181.06,-208.47 181.06,-227.72"/>
<text text-anchor="middle" x="134.43" y="-215.17" font-family="Times New Roman,serif" font-size="9.00">Current loop package</text>
</g>
<!-- Current loop package&#45;&gt;package output -->
<g id="edge3" class="edge">
<title>Current loop package&#45;&gt;package output</title>
<path fill="none" stroke="green" stroke-width="0.33" d="M87.41,-213.71C59.23,-208.97 25.47,-197.93 7.43,-172.47 -14.69,-141.25 17.75,-107.08 50.58,-83.05"/>
<polygon fill="green" stroke="green" stroke-width="0.33" points="52.35,-86.09 58.49,-77.46 48.31,-80.38 52.35,-86.09"/>
</g>
<!-- Current loop package&#45;&gt;hub output -->
<g id="edge4" class="edge">
<title>Current loop package&#45;&gt;hub output</title>
<path fill="none" stroke="red" stroke-width="0.37" d="M181.25,-211.71C211.5,-206.17 250.15,-194.99 277.43,-172.47 300.55,-153.39 316.65,-123.86 327.04,-98.76"/>
<polygon fill="red" stroke="red" stroke-width="0.37" points="330.25,-100.15 330.67,-89.56 323.74,-97.58 330.25,-100.15"/>
</g>
<!-- 82 -->
<g id="node9" class="node">
<title>82</title>
<ellipse fill="white" stroke="black" cx="34.43" cy="-154.79" rx="17.68" ry="17.68"/>
<text text-anchor="middle" x="34.43" y="-151.87" font-family="Times New Roman,serif" font-size="9.00">82</text>
</g>
<!-- Current loop package&#45;&gt;82 -->
<g id="edge12" class="edge">
<title>Current loop package&#45;&gt;82</title>
<path fill="none" stroke="green" stroke-width="0.38" d="M119.6,-208.06C104.84,-199.06 81.55,-184.84 61.43,-172.47 60.32,-171.79 59.19,-171.09 58.04,-170.39"/>
<polygon fill="green" stroke="green" stroke-width="0.38" points="60.12,-167.56 49.77,-165.28 56.44,-173.51 60.12,-167.56"/>
</g>
<!-- Current loop package&#45;&gt;24 -->
<g id="edge11" class="edge">
<title>Current loop package&#45;&gt;24</title>
<path fill="none" stroke="green" stroke-width="0.97" stroke-dasharray="1,5" d="M181.29,-208.31C217.28,-200.83 267.87,-188.7 310.43,-172.47 312.67,-171.62 314.96,-170.64 317.23,-169.61"/>
<polygon fill="green" stroke="green" stroke-width="0.97" points="318.75,-172.76 326.15,-165.17 315.63,-166.49 318.75,-172.76"/>
</g>
<!-- Distance to hub -->
<g id="node4" class="node">
<title>Distance to hub</title>
<polygon fill="lightgray" stroke="black" points="450.93,-164.42 377.93,-164.42 377.93,-145.17 450.93,-145.17 450.93,-164.42"/>
<text text-anchor="middle" x="414.43" y="-151.87" font-family="Times New Roman,serif" font-size="9.00">Distance to hub</text>
</g>
<!-- Distance to hub&#45;&gt;hub output -->
<g id="edge5" class="edge">
<title>Distance to hub&#45;&gt;hub output</title>
<path fill="none" stroke="red" stroke-width="0.21" d="M408.04,-144.72C399.71,-132.89 384.58,-111.41 370.95,-92.05"/>
<polygon fill="red" stroke="red" stroke-width="0.21" points="373.82,-90.06 365.2,-83.9 368.1,-94.09 373.82,-90.06"/>
</g>
<!-- Current Time -->
<g id="node5" class="node">
<title>Current Time</title>
<polygon fill="lightgray" stroke="black" points="134.81,-164.42 70.06,-164.42 70.06,-145.17 134.81,-145.17 134.81,-164.42"/>
<text text-anchor="middle" x="102.43" y="-151.87" font-family="Times New Roman,serif" font-size="9.00">Current Time</text>
</g>
<!-- Current Time&#45;&gt;package output -->
<g id="edge6" class="edge">
<title>Current Time&#45;&gt;package output</title>
<path fill="none" stroke="red" stroke-width="0.33" stroke-dasharray="1,5" d="M102.43,-144.72C102.43,-136.85 102.43,-124.73 102.43,-111.79"/>
<polygon fill="red" stroke="red" stroke-width="0.33" points="105.93,-111.82 102.43,-101.82 98.93,-111.82 105.93,-111.82"/>
</g>
<!-- Package Deadline -->
<g id="node6" class="node">
<title>Package Deadline</title>
<polygon fill="lightgray" stroke="black" points="268.56,-164.42 190.31,-164.42 190.31,-145.17 268.56,-145.17 268.56,-164.42"/>
<text text-anchor="middle" x="229.43" y="-151.87" font-family="Times New Roman,serif" font-size="9.00">Package Deadline</text>
</g>
<!-- Package Deadline&#45;&gt;package output -->
<g id="edge7" class="edge">
<title>Package Deadline&#45;&gt;package output</title>
<path fill="none" stroke="red" stroke-width="0.55" d="M218.16,-144.72C202.83,-132.38 174.48,-109.56 149.68,-89.59"/>
<polygon fill="red" stroke="red" stroke-width="0.55" points="152.06,-87.01 142.07,-83.47 147.67,-92.47 152.06,-87.01"/>
</g>
<!-- Package Deadline&#45;&gt;hub output -->
<g id="edge8" class="edge">
<title>Package Deadline&#45;&gt;hub output</title>
<path fill="none" stroke="red" stroke-width="0.43" d="M239.46,-144.72C254.21,-131.37 282.53,-105.76 305.74,-84.76"/>
<polygon fill="red" stroke="red" stroke-width="0.43" points="307.84,-87.58 312.9,-78.27 303.14,-82.38 307.84,-87.58"/>
</g>
<!-- 82&#45;&gt;package output -->
<g id="edge13" class="edge">
<title>82&#45;&gt;package output</title>
<path fill="none" stroke="red" stroke-width="0.37" d="M43.89,-139.58C50.53,-129.58 59.86,-115.56 69.13,-101.63"/>
<polygon fill="red" stroke="red" stroke-width="0.37" points="71.93,-103.74 74.55,-93.47 66.1,-99.86 71.93,-103.74"/>
</g>
<!-- 24&#45;&gt;hub output -->
<g id="edge10" class="edge">
<title>24&#45;&gt;hub output</title>
<path fill="none" stroke="green" stroke-width="0.28" d="M342.43,-136.91C342.43,-127.07 342.43,-114.09 342.43,-101.23"/>
<polygon fill="green" stroke="green" stroke-width="0.28" points="345.93,-101.43 342.43,-91.43 338.93,-101.43 345.93,-101.43"/>
</g>
</g>
</svg>
